<svg width="20" height="20" viewBox="0 0 20 20" fill="none" xmlns="http://www.w3.org/2000/svg">
<path fill-rule="evenodd" clip-rule="evenodd" d="M17.6221 1.75C17.7461 1.74902 17.9268 1.76758 18.167 1.91406C18.6328 2.73633 17.9365 3.62988 17.2393 4.25488L17.1953 4.2959L17.1738 4.31641L13.9287 7.4668L13.0996 8.27539L16.1904 13.9648L16.3516 14.2617L12.043 9.83594L10.9688 10.6719L4.74902 15.5117L4.12598 15.998L4.04785 15.9297L4.49219 15.3555L9.37012 9.05469L10.2012 7.98242L5.80469 3.66406L6.04688 3.79785L11.7773 6.94629L12.584 6.12402L15.7559 2.90137L15.7979 2.85742L15.8174 2.83594C16.4248 2.16797 17.1152 1.75293 17.6221 1.75ZM2.30273 0L1.02051 1.10352L8.16797 8.12109L3.28906 14.4219L0.694336 13.5723L0 14.4238L2.45996 16.5645L1.75 17.2891C1.62207 17.418 1.55664 17.5918 1.55859 17.7598C1.56055 17.9297 1.62305 18.0957 1.75488 18.2266C1.88281 18.3574 2.0498 18.4219 2.21973 18.4258C2.22363 18.4258 2.22754 18.4258 2.2334 18.4258C2.39941 18.4258 2.56348 18.3613 2.69238 18.2363L3.41797 17.5332L5.55078 20L6.3623 19.377L5.68359 16.7148L11.9023 11.873L18.8887 19.0527L20 17.7754L17.5273 13.2344L18.7256 12.5117L17.2998 10.1426L16.1895 10.7715L14.9893 8.5625L18.2344 5.41113C18.4492 5.21387 20.9785 3.05078 19.2666 0.823242C18.7021 0.386719 18.1416 0.22168 17.6152 0.224609C16.0684 0.231445 14.8184 1.67188 14.6719 1.83203L11.499 5.05566L9.2959 3.84375L10.0469 2.7207L7.68555 1.28418L6.78027 2.46191L2.30273 0Z" fill="#5E6670"/>
</svg>
