<svg width="20" height="20" viewBox="0 0 20 20" fill="none" xmlns="http://www.w3.org/2000/svg">
<path fill-rule="evenodd" clip-rule="evenodd" d="M6.6248 3.83431C7.47003 2.85061 8.70259 2.28442 9.99998 2.28442C11.2974 2.28442 12.5299 2.8506 13.3751 3.83428C13.9302 4.43804 14.7196 4.77222 15.5398 4.75028L15.5498 4.75001H20V8.71667H15.5498L15.5398 8.7164C14.7196 8.69445 13.9302 9.02864 13.3751 9.6324C12.5299 10.6161 11.2974 11.1823 9.99998 11.1823C8.70259 11.1823 7.47003 10.6161 6.6248 9.63236C6.06981 9.02855 5.28045 8.69437 4.46027 8.7164L4.4502 8.71667H-6.10352e-05L-2.78354e-05 5.50044L-6.10352e-05 4.75001H4.4502L4.46027 4.75028C5.28045 4.77231 6.06981 4.43813 6.6248 3.83431ZM1.49999 6.25001V7.21667H4.43052C5.68625 7.18599 6.8938 7.70132 7.74048 8.62964L7.74873 8.63869L7.75668 8.64799C8.31715 9.3043 9.13692 9.68225 9.99998 9.68225C10.863 9.68225 11.6828 9.3043 12.2433 8.64799L12.2513 8.63866L12.2595 8.62959C13.1063 7.7014 14.3137 7.18611 15.5694 7.21667H18.5V6.25001H15.5694C14.3137 6.28057 13.1063 5.76527 12.2595 4.83709L12.2513 4.82802L12.2433 4.81868C11.6828 4.16237 10.863 3.78442 9.99998 3.78442C9.13692 3.78442 8.31715 4.16237 7.75668 4.81868L7.74873 4.82799L7.74048 4.83703C6.8938 5.76535 5.68625 6.28069 4.43053 6.25001H1.49999Z" fill="#5E6670"/>
<path fill-rule="evenodd" clip-rule="evenodd" d="M0 0H2.425V1.5H0V0Z" fill="#5E6670"/>
<path fill-rule="evenodd" clip-rule="evenodd" d="M3.93115 0H6.35615V1.5H3.93115V0Z" fill="#5E6670"/>
<path fill-rule="evenodd" clip-rule="evenodd" d="M13.64 0H16.065V1.5H13.64V0Z" fill="#5E6670"/>
<path fill-rule="evenodd" clip-rule="evenodd" d="M17.5712 0H19.9962V1.5H17.5712V0Z" fill="#5E6670"/>
<path fill-rule="evenodd" clip-rule="evenodd" d="M3.96661 2.28333V6.24999H2.46661V2.28333H3.96661Z" fill="#5E6670"/>
<path fill-rule="evenodd" clip-rule="evenodd" d="M17.5333 2.28333V6.24999H16.0333V2.28333H17.5333Z" fill="#5E6670"/>
<path fill-rule="evenodd" clip-rule="evenodd" d="M6.70365 10.7231L6.04859 11.0884C4.46044 11.9739 3.31183 13.4796 2.87744 15.2451C2.84453 15.3908 2.87904 15.5436 2.97151 15.661C3.06423 15.7788 3.20521 15.8482 3.35498 15.85H5.20002V17.35H3.34588C2.73956 17.3454 2.1682 17.0654 1.79307 16.5891C1.41793 16.1127 1.2797 15.4916 1.41739 14.9012L1.41933 14.8928C1.95204 12.7204 3.3645 10.8676 5.3181 9.77827L5.97316 9.41302L6.70365 10.7231Z" fill="#5E6670"/>
<path fill-rule="evenodd" clip-rule="evenodd" d="M14.0268 9.41302L14.6819 9.77827C16.6355 10.8676 18.0479 12.7204 18.5806 14.8929L18.5826 14.9011C18.7203 15.4916 18.582 16.1127 18.2069 16.5891C17.8318 17.0654 17.2604 17.3454 16.6541 17.35L16.6484 17.35L14.8 17.35V15.85H16.645C16.7947 15.8482 16.9357 15.7788 17.0285 15.661C17.1209 15.5436 17.1554 15.3908 17.1225 15.2451C16.6881 13.4796 15.5395 11.9739 13.9514 11.0884L13.2963 10.7231L14.0268 9.41302Z" fill="#5E6670"/>
<path fill-rule="evenodd" clip-rule="evenodd" d="M6.47504 15.3667C6.47504 13.4199 8.05323 11.8417 10 11.8417C11.9468 11.8417 13.525 13.4199 13.525 15.3667C13.525 17.3135 11.9468 18.8917 10 18.8917C8.05323 18.8917 6.47504 17.3135 6.47504 15.3667ZM10 13.3417C8.88166 13.3417 7.97504 14.2483 7.97504 15.3667C7.97504 16.485 8.88166 17.3917 10 17.3917C11.1184 17.3917 12.025 16.485 12.025 15.3667C12.025 14.2483 11.1184 13.3417 10 13.3417Z" fill="#5E6670"/>
<path fill-rule="evenodd" clip-rule="evenodd" d="M8.94165 15.3666C8.94165 14.7821 9.41548 14.3083 9.99998 14.3083C10.5845 14.3083 11.0583 14.7821 11.0583 15.3666C11.0583 15.9511 10.5845 16.425 9.99998 16.425C9.41548 16.425 8.94165 15.9511 8.94165 15.3666Z" fill="#5E6670"/>
</svg>
