<svg width="20" height="20" viewBox="0 0 20 20" fill="none" xmlns="http://www.w3.org/2000/svg">
<path fill-rule="evenodd" clip-rule="evenodd" d="M18.388 8.028H20V20H0V8.028H3.162V9.528H1.5V18.5H18.5V9.528H17.388L18.388 8.028ZM9.5 9.5C9.5 8.39543 8.60457 7.5 7.5 7.5C6.39543 7.5 5.5 8.39543 5.5 9.5C5.5 10.166 6.163 11.536 7.5 13.461C8.837 11.536 9.5 10.166 9.5 9.5ZM7.5 16C5.167 12.955 4 10.789 4 9.5C4 7.567 5.567 6 7.5 6C9.433 6 11 7.567 11 9.5C11 10.789 9.833 12.955 7.5 16ZM17.5 3.5C17.5 2.39543 16.6046 1.5 15.5 1.5C14.3954 1.5 13.5 2.39543 13.5 3.5C13.5 4.166 14.163 5.536 15.5 7.461C16.837 5.536 17.5 4.166 17.5 3.5ZM15.5 10C13.167 6.955 12 4.789 12 3.5C12 1.567 13.567 0 15.5 0C17.433 0 19 1.567 19 3.5C19 4.789 17.833 6.955 15.5 10Z" fill="white"/>
</svg>
