<svg width="20" height="20" viewBox="0 0 20 20" fill="none" xmlns="http://www.w3.org/2000/svg">
<path fill-rule="evenodd" clip-rule="evenodd" d="M2.47635 4.81343C2.32275 4.60874 2.04207 4.54803 1.8176 4.67094C1.59317 4.79383 1.49312 5.06294 1.58275 5.30258L2.43359 7.57093C2.56383 7.9178 2.86112 8.17511 3.22312 8.25412L3.22509 8.25455L6.81498 9.04821C7.68595 9.24083 8.39694 9.86738 8.69753 10.7072L9.69694 13.5056C9.83766 13.8998 10.2108 14.1635 10.6293 14.1643H17.3948L17.4038 14.1645C17.6913 14.1714 17.969 14.0603 18.1724 13.8571C18.3758 13.6538 18.4872 13.3762 18.4806 13.0887L18.4804 13.0805C18.4749 12.6277 18.4109 12.1775 18.2898 11.7412L18.2873 11.732C17.5611 8.98036 15.072 7.06346 12.2261 7.06432H4.16499L2.47635 4.81343ZM1.09719 3.35526C1.97601 2.87406 3.07488 3.1118 3.6762 3.91323L4.91487 5.56432H12.2256C15.751 5.56335 18.8349 7.9369 19.7365 11.3447C19.891 11.9032 19.973 12.4792 19.9803 13.0586L19.9803 13.0624L19.9802 13.0542L19.9803 13.0586C19.9951 13.7545 19.725 14.4262 19.2326 14.9182C18.7414 15.409 18.0716 15.6783 17.3777 15.6643H17.3859L17.3679 15.6641C17.3712 15.6642 17.3744 15.6643 17.3777 15.6643H10.6276C9.57565 15.6627 8.638 15.0008 8.28433 14.0101L7.28526 11.2127C7.15837 10.8587 6.8584 10.5941 6.49117 10.5128L2.90326 9.71962L2.90129 9.71919C2.04239 9.53137 1.3382 8.92118 1.02924 8.09801L0.178199 5.82911C-0.173095 4.89078 0.218381 3.83646 1.09719 3.35526Z" fill="#5E6670"/>
<path fill-rule="evenodd" clip-rule="evenodd" d="M12.6073 0.650024V7.06431H11.1073V0.650024H12.6073Z" fill="#5E6670"/>
<path fill-rule="evenodd" clip-rule="evenodd" d="M3.73584 1.87854H19.9787V3.37854H3.73584V1.87854Z" fill="#5E6670"/>
<path fill-rule="evenodd" clip-rule="evenodd" d="M12.213 5.51819L13.0551 5.62237C16.076 5.9961 18.6003 8.09975 19.5126 11.0038L19.8188 11.9786H12.213L12.213 11.2286L12.213 5.51819ZM13.713 10.4786H17.6828C16.876 8.89963 15.4323 7.73117 13.713 7.27416L13.713 10.4786Z" fill="#5E6670"/>
<path fill-rule="evenodd" clip-rule="evenodd" d="M8.92163 16.6215L8.92162 17.85H18.4788L18.4788 16.6215H19.9788L19.9788 19.35H7.42157L7.4216 18.6L7.42163 16.6215H8.92163Z" fill="#5E6670"/>
<path fill-rule="evenodd" clip-rule="evenodd" d="M15.2076 14.2435C15.5781 14.0583 16.0286 14.2085 16.2138 14.5789L18.0567 18.2647C18.2419 18.6351 18.0918 19.0856 17.7213 19.2709C17.3508 19.4561 16.9003 19.306 16.715 18.9355L14.8722 15.2498C14.6869 14.8793 14.8371 14.4288 15.2076 14.2435Z" fill="#5E6670"/>
<path fill-rule="evenodd" clip-rule="evenodd" d="M12.1927 14.2435C12.5631 14.4288 12.7133 14.8793 12.5281 15.2498L10.6852 18.9355C10.5 19.306 10.0495 19.4561 9.67898 19.2709C9.30849 19.0856 9.15832 18.6351 9.34357 18.2647L11.1864 14.5789C11.3717 14.2085 11.8222 14.0583 12.1927 14.2435Z" fill="#5E6670"/>
</svg>
