<svg width="20" height="20" viewBox="0 0 20 20" fill="none" xmlns="http://www.w3.org/2000/svg">
<path fill-rule="evenodd" clip-rule="evenodd" d="M20 8.49023L16.2578 4.19238H11.9844V1H0V16.4434H2.13574C2.13574 16.4482 2.13379 16.4531 2.13379 16.459C2.13379 17.9443 3.34277 19.1523 4.82812 19.1523C6.31348 19.1523 7.52246 17.9443 7.52246 16.459C7.52246 16.4531 7.52051 16.4482 7.52051 16.4434H12.9775C12.9775 16.4482 12.9756 16.4531 12.9756 16.459C12.9756 17.9443 14.1846 19.1523 15.6689 19.1523C17.1553 19.1523 18.3633 17.9443 18.3633 16.459C18.3633 16.4531 18.3623 16.4482 18.3613 16.4434H20V8.49023ZM14.625 5.67969H15.5703L18.082 8.5625H14.625V5.67969ZM4.85449 17.6787C4.17871 17.6787 3.62891 17.1309 3.62891 16.4541C3.62891 15.7783 4.17871 15.2295 4.85449 15.2295C5.5293 15.2295 6.0791 15.7783 6.0791 16.4541C6.0791 17.1309 5.5293 17.6787 4.85449 17.6787ZM10.4844 14.9561H7.48633H7.0625C6.57812 14.2383 5.75684 13.7656 4.82812 13.7656C3.89941 13.7656 3.07812 14.2383 2.59375 14.9561H1.5V2.48633H10.4844V14.9561ZM15.6621 17.6787C14.9873 17.6787 14.4375 17.1309 14.4375 16.4541C14.4375 15.7783 14.9873 15.2295 15.6621 15.2295C16.3379 15.2295 16.8887 15.7783 16.8887 16.4541C16.8887 17.1309 16.3379 17.6787 15.6621 17.6787ZM18.5 14.9561H18.2715H17.9043C17.4189 14.2383 16.5996 13.7656 15.6689 13.7656C14.7402 13.7656 13.9189 14.2383 13.4355 14.9561H13.1172H11.9844V5.67969H13.125V10.0498H18.5V14.9561Z" fill="#5E6670"/>
</svg>
