<svg width="20" height="20" viewBox="0 0 20 20" fill="none" xmlns="http://www.w3.org/2000/svg">
<path fill-rule="evenodd" clip-rule="evenodd" d="M10.0002 0C5.79999 0 2.29999 3.40039 2.29999 7.59961C2.29999 13.3008 10.0002 20 10.0002 20C10.0002 20 17.7004 13.3008 17.7004 7.59961C17.5998 3.5 14.2004 0 10.0002 0Z" fill="#DA3A3A"/>
<path fill-rule="evenodd" clip-rule="evenodd" d="M10.0002 0C5.79999 0 2.29999 3.40039 2.29999 7.59961C2.29999 13.3008 10.0002 20 10.0002 20C10.0002 20 17.7004 13.3008 17.7004 7.59961C17.5998 3.5 14.2004 0 10.0002 0ZM10.0002 17.9004C7.70038 15.5996 3.79999 11.0996 3.79999 7.59961C3.79999 4.2998 6.59979 1.5 10.0002 1.5C13.3996 1.5 16.2004 4.2002 16.2004 7.59961C16.2004 11.0996 12.3996 15.5996 10.0002 17.9004ZM9.99998 10.2C11.3807 10.2 12.5 9.08071 12.5 7.7C12.5 6.31929 11.3807 5.2 9.99998 5.2C8.61927 5.2 7.49998 6.31929 7.49998 7.7C7.49998 9.08071 8.61927 10.2 9.99998 10.2Z" fill="white"/>
</svg>
